{
  "accessors": [
    {
      "bufferView": 0,
      "componentType": 5125,
      "count": 48264,
      "type": "SCALAR"
    },
    {
      "bufferView": 1,
      "componentType": 5126,
      "count": 11370,
      "max": [
        2.51825714111328,
        6.1518383026123,
        0.475852400064468
      ],
      "min": [
        -2.51825714111328,
        -0.162479400634766,
        -1.35710108280182
      ],
      "type": "VEC3"
    },
    {
      "bufferView": 2,
      "componentType": 5126,
      "count": 11370,
      "type": "VEC3"
    },
    {
      "bufferView": 3,
      "componentType": 5126,
      "count": 11370,
      "type": "VEC2"
    },
    {
      "bufferView": 4,
      "componentType": 5125,
      "count": 21774,
      "type": "SCALAR"
    },
    {
      "bufferView": 5,
      "componentType": 5126,
      "count": 5792,
      "max": [
        2.57584571838379,
        6.14894437789917,
        0.821987330913544
      ],
      "min": [
        -2.57584571838379,
        -0.00999116897583008,
        -0.866832852363586
      ],
      "type": "VEC3"
    },
    {
      "bufferView": 6,
      "componentType": 5126,
      "count": 5792,
      "type": "VEC3"
    },
    {
      "bufferView": 7,
      "componentType": 5126,
      "count": 5792,
      "type": "VEC2"
    }
  ],
  "asset": {
    "generator": "Substance Painter 6.2.1",
    "version": "2.0"
  },
  "bufferViews": [
    {
      "buffer": 0,
      "byteLength": 193056,
      "target": 34963
    },
    {
      "buffer": 0,
      "byteLength": 136440,
      "byteOffset": 193056,
      "target": 34962
    },
    {
      "buffer": 0,
      "byteLength": 136440,
      "byteOffset": 329496,
      "target": 34962
    },
    {
      "buffer": 0,
      "byteLength": 90960,
      "byteOffset": 465936,
      "target": 34962
    },
    {
      "buffer": 0,
      "byteLength": 87096,
      "byteOffset": 556896,
      "target": 34963
    },
    {
      "buffer": 0,
      "byteLength": 69504,
      "byteOffset": 643992,
      "target": 34962
    },
    {
      "buffer": 0,
      "byteLength": 69504,
      "byteOffset": 713496,
      "target": 34962
    },
    {
      "buffer": 0,
      "byteLength": 46336,
      "byteOffset": 783000,
      "target": 34962
    }
  ],
  "buffers": [
    {
      "byteLength": 829336,
      "uri": "PartyGlass.bin"
    }
  ],
  "images": [
    {
      "uri": "Frame_baseColor.png"
    },
    {
      "uri": "Frame_occlusionRoughnessMetallic.png"
    },
    {
      "uri": "Frame_normal.png"
    },
    {
      "uri": "NeonWires_baseColor.png"
    },
    {
      "uri": "NeonWires_occlusionRoughnessMetallic.png"
    },
    {
      "uri": "NeonWires_normal.png"
    },
    {
      "uri": "NeonWires_emissive.png"
    }
  ],
  "materials": [
    {
      "alphaMode": "OPAQUE",
      "name": "Frame",
      "normalTexture": {
        "index": 2
      },
      "occlusionTexture": {
        "index": 1
      },
      "pbrMetallicRoughness": {
        "baseColorTexture": {
          "index": 0
        },
        "metallicRoughnessTexture": {
          "index": 1
        }
      }
    },
    {
      "alphaMode": "OPAQUE",
      "emissiveFactor": [
        1.0,
        1.0,
        1.0
      ],
      "emissiveTexture": {
        "index": 6
      },
      "name": "NeonWires",
      "normalTexture": {
        "index": 5
      },
      "occlusionTexture": {
        "index": 4
      },
      "pbrMetallicRoughness": {
        "baseColorTexture": {
          "index": 3
        },
        "metallicRoughnessTexture": {
          "index": 4
        }
      }
    }
  ],
  "meshes": [
    {
      "name": "Cube.007",
      "primitives": [
        {
          "attributes": {
            "NORMAL": 2,
            "POSITION": 1,
            "TEXCOORD_0": 3
          },
          "indices": 0,
          "material": 1,
          "mode": 4
        }
      ]
    },
    {
      "name": "Cube.010",
      "primitives": [
        {
          "attributes": {
            "NORMAL": 6,
            "POSITION": 5,
            "TEXCOORD_0": 7
          },
          "indices": 4,
          "material": 0,
          "mode": 4
        }
      ]
    }
  ],
  "nodes": [
    {
      "children": [
        1,
        3
      ],
      "name": "RootNode"
    },
    {
      "children": [
        2
      ],
      "name": "Cube.007",
      "rotation": [
        -0.707106828689575,
        0.0,
        0.0,
        0.707106709480286
      ],
      "scale": [
        100.0,
        100.0,
        100.0
      ],
      "translation": [
        0.0,
        42.0479354858398,
        -6.9784107208252
      ]
    },
    {
      "mesh": 0,
      "name": "Cube.007"
    },
    {
      "children": [
        4
      ],
      "name": "Cube.010",
      "rotation": [
        -0.707106828689575,
        0.0,
        0.0,
        0.707106709480286
      ],
      "scale": [
        100.0,
        100.0,
        100.0
      ],
      "translation": [
        0.0,
        3.72529029846191e-06,
        2.38418579101563e-05
      ]
    },
    {
      "mesh": 1,
      "name": "Cube.010"
    }
  ],
  "samplers": [
    {
      "magFilter": 9729,
      "minFilter": 9985,
      "wrapS": 10497,
      "wrapT": 10497
    }
  ],
  "scene": 0,
  "scenes": [
    {
      "name": "Scene",
      "nodes": [
        0
      ]
    }
  ],
  "textures": [
    {
      "sampler": 0,
      "source": 0
    },
    {
      "sampler": 0,
      "source": 1
    },
    {
      "sampler": 0,
      "source": 2
    },
    {
      "sampler": 0,
      "source": 3
    },
    {
      "sampler": 0,
      "source": 4
    },
    {
      "sampler": 0,
      "source": 5
    },
    {
      "sampler": 0,
      "source": 6
    }
  ]
}